<svg xmlns="http://www.w3.org/2000/svg" width="700" height="600" viewBox="0 0 700 600" xmlns:xlink="http://www.w3.org/1999/xlink" role="img" artist="Katerina Limpitsouni" source="https://undraw.co/"><path d="M282.02994,507.09318H194.77017a17.01917,17.01917,0,0,1-17-17v-349a17.01917,17.01917,0,0,1,17-17H431.45108l43.31909,38.67822v70.32178h-2V163.66691L430.6879,126.09318H194.77017a15.017,15.017,0,0,0-15,15v349a15.017,15.017,0,0,0,15,15h87.25977Z" transform="translate(-50 -124.09318)" fill="#ccc"/><path d="M473.77017,164.09318h-27a17.01917,17.01917,0,0,1-17-17v-22a1,1,0,1,1,2,0v22a15.017,15.017,0,0,0,15,15h27a1,1,0,0,1,0,2Z" transform="translate(-50 -124.09318)" fill="#ccc"/><path d="M440.31021,214.59318h-228a8,8,0,0,0,0,16h228a8,8,0,0,0,0-16Z" transform="translate(-50 -124.09318)" fill="#e6e6e6"/><path d="M325.31021,180.59318h-113a8,8,0,0,0,0,16h113a8,8,0,0,0,0-16Z" transform="translate(-50 -124.09318)" fill="#e6e6e6"/><path d="M212.31021,281.59318a8,8,0,0,0,0,16h71.46v-16Z" transform="translate(-50 -124.09318)" fill="#e6e6e6"/><path d="M212.31021,247.59318a8,8,0,1,0,0,16h71.46v-16Z" transform="translate(-50 -124.09318)" fill="#e6e6e6"/><path d="M284.27017,451.09318h-64.04a16.51867,16.51867,0,0,1-16.5-16.5v-84a16.51868,16.51868,0,0,1,16.5-16.5h64.04Z" transform="translate(-50 -124.09318)" fill="#e6e6e6"/><path d="M387.52994,614.59318H300.27017a17.01917,17.01917,0,0,1-17-17v-349a17.01917,17.01917,0,0,1,17-17H536.95108l43.31909,38.67822v66.32178h-2V271.16691L536.1879,233.59318H300.27017a15.017,15.017,0,0,0-15,15v349a15.017,15.017,0,0,0,15,15h87.25977Z" transform="translate(-50 -124.09318)" fill="#ccc"/><path d="M579.27017,271.59318h-27a17.01917,17.01917,0,0,1-17-17v-22a1,1,0,1,1,2,0v22a15.017,15.017,0,0,0,15,15h27a1,1,0,0,1,0,2Z" transform="translate(-50 -124.09318)" fill="#ccc"/><path d="M545.81021,322.09318h-228a8,8,0,0,0,0,16h228a8,8,0,0,0,0-16Z" transform="translate(-50 -124.09318)" fill="#e6e6e6"/><path d="M430.81021,288.09318h-113a8,8,0,0,0,0,16h113a8,8,0,0,0,0-16Z" transform="translate(-50 -124.09318)" fill="#e6e6e6"/><path d="M545.81021,322.09318h-228a8,8,0,0,0,0,16h228a8,8,0,0,0,0-16Z" transform="translate(-50 -124.09318)" fill="#e6e6e6"/><path d="M430.81021,288.09318h-113a8,8,0,0,0,0,16h113a8,8,0,0,0,0-16Z" transform="translate(-50 -124.09318)" fill="#e6e6e6"/><path d="M317.81021,389.09318a8,8,0,0,0,0,16h71.46v-16Z" transform="translate(-50 -124.09318)" fill="#e6e6e6"/><path d="M317.81021,355.09318a8,8,0,0,0,0,16h71.46v-16Z" transform="translate(-50 -124.09318)" fill="#e6e6e6"/><path d="M317.81021,389.09318a8,8,0,0,0,0,16h71.46v-16Z" transform="translate(-50 -124.09318)" fill="#e6e6e6"/><path d="M317.81021,355.09318a8,8,0,0,0,0,16h71.46v-16Z" transform="translate(-50 -124.09318)" fill="#e6e6e6"/><path d="M389.77017,558.59318h-64.04a16.51867,16.51867,0,0,1-16.5-16.5v-84a16.51868,16.51868,0,0,1,16.5-16.5h64.04Z" transform="translate(-50 -124.09318)" fill="#e6e6e6"/><path d="M395.41031,340.09318a16.99409,16.99409,0,0,0-8.14014,14.5v2.5h2v-2.5a15.02721,15.02721,0,0,1,11.1499-14.5Zm245.54-2.5H404.27017a17.01989,17.01989,0,0,0-17,17v349a17.0241,17.0241,0,0,0,17,17h263a17.0241,17.0241,0,0,0,17-17v-327.32Zm41.31982,366a15.01828,15.01828,0,0,1-15,15h-263a15.01828,15.01828,0,0,1-15-15v-349a15.02721,15.02721,0,0,1,11.1499-14.5,14.83265,14.83265,0,0,1,3.8501-.5H640.19009l42.08008,37.57Zm-286.85986-363.5a16.99409,16.99409,0,0,0-8.14014,14.5v2.5h2v-2.5a15.02721,15.02721,0,0,1,11.1499-14.5Z" transform="translate(-50 -124.09318)" fill="#3f3d56"/><path d="M683.27017,377.59318h-27a17.01917,17.01917,0,0,1-17-17v-22a1,1,0,0,1,2,0v22a15.017,15.017,0,0,0,15,15h27a1,1,0,0,1,0,2Z" transform="translate(-50 -124.09318)" fill="#3f3d56"/><path d="M649.81154,444.09318h-228a8,8,0,1,1,0-16h228a8,8,0,0,1,0,16Z" transform="translate(-50 -124.09318)" fill="#ccc"/><path d="M534.81154,410.09318h-113a8,8,0,1,1,0-16h113a8,8,0,0,1,0,16Z" transform="translate(-50 -124.09318)" fill="#ccc"/><path d="M649.81154,511.09318h-228a8,8,0,1,1,0-16h228a8,8,0,0,1,0,16Z" transform="translate(-50 -124.09318)" fill="#ccc"/><path d="M534.81154,477.09318h-113a8,8,0,1,1,0-16h113a8,8,0,0,1,0,16Z" transform="translate(-50 -124.09318)" fill="#ccc"/><path d="M641.72891,664.59318h-212a16.51867,16.51867,0,0,1-16.5-16.5v-84a16.51868,16.51868,0,0,1,16.5-16.5h212a16.51867,16.51867,0,0,1,16.5,16.5v84A16.51866,16.51866,0,0,1,641.72891,664.59318Z" transform="translate(-50 -124.09318)" fill="#5271FF"/></svg>