<svg width="500" height="600" viewBox="-200 0 2000 2300" xmlns="http://www.w3.org/2000/svg" xmlns:xlink="http://www.w3.org/1999/xlink" ><g transform="translate(-1293 -242)"><path d="M2915.47 1253.96 2131.49 1253.96C2116.3 1253.96 2103.98 1241.64 2103.98 1226.46 2103.98 1211.27 2116.3 1198.96 2131.49 1198.96L2915.47 1198.96C2930.66 1198.96 2942.98 1211.27 2942.98 1226.46 2942.98 1241.64 2930.66 1253.96 2915.47 1253.96Z" fill="#CCCCCC" fill-rule="evenodd"/><path d="M2520.45 1136.96 2131.52 1136.96C2116.31 1136.96 2103.98 1124.64 2103.98 1109.46 2103.98 1094.27 2116.31 1081.96 2131.52 1081.96L2520.45 1081.96C2535.65 1081.96 2547.98 1094.27 2547.98 1109.46 2547.98 1124.64 2535.65 1136.96 2520.45 1136.96Z" fill="#CCCCCC" fill-rule="evenodd"/><path d="M2887.28 2186.91 2158.69 2186.91C2127.38 2186.84 2102.02 2133.91 2101.98 2068.59L2101.98 1466.23C2102.02 1400.91 2127.38 1347.99 2158.69 1347.91L2887.28 1347.91C2918.58 1347.99 2943.95 1400.91 2943.98 1466.23L2943.98 2068.59C2943.95 2133.91 2918.58 2186.84 2887.28 2186.91Z" fill="#F2F2F2" fill-rule="evenodd"/><path d="M2271.5 1348.5 2271.5 2187.53" stroke="#5271FF" stroke-width="6.875" stroke-miterlimit="8" stroke-opacity="0.301961" fill="none" fill-rule="evenodd"/><path d="M2376.5 1348.5 2376.5 2187.53" stroke="#5271FF" stroke-width="6.875" stroke-miterlimit="8" stroke-opacity="0.301961" fill="none" fill-rule="evenodd"/><path d="M2489.5 1348.5 2489.5 2187.53" stroke="#5271FF" stroke-width="6.875" stroke-miterlimit="8" stroke-opacity="0.301961" fill="none" fill-rule="evenodd"/><path d="M0 0 842.188 0.000360892" stroke="#5271FF" stroke-width="11.4583" stroke-miterlimit="8" fill="none" fill-rule="evenodd" transform="matrix(-1 0 0 1 2944.69 1481.5)"/><path d="M2805.5 1348.5 2805.5 2187.53" stroke="#5271FF" stroke-width="6.875" stroke-miterlimit="8" stroke-opacity="0.301961" fill="none" fill-rule="evenodd"/><path d="M0 0 842.188 0.000360892" stroke="#5271FF" stroke-width="11.4583" stroke-miterlimit="8" fill="none" fill-rule="evenodd" transform="matrix(-1 0 0 1 2943.69 2079.5)"/><path d="M2239.5 1546.97 2119.49 1546.97C2114.8 1546.97 2110.99 1539.14 2110.99 1529.47 2110.99 1519.81 2114.8 1511.97 2119.49 1511.97L2239.5 1511.97C2244.19 1511.97 2247.99 1519.81 2247.99 1529.47 2247.99 1539.14 2244.19 1546.97 2239.5 1546.97Z" fill="#CCCCCC" fill-rule="evenodd"/><path d="M2239.5 1613.97 2119.49 1613.97C2114.8 1613.97 2110.99 1606.14 2110.99 1596.47 2110.99 1586.81 2114.8 1578.97 2119.49 1578.97L2239.5 1578.97C2244.19 1578.97 2247.99 1586.81 2247.99 1596.47 2247.99 1606.14 2244.19 1613.97 2239.5 1613.97Z" fill="#CCCCCC" fill-rule="evenodd"/><path d="M2239.5 1681.97 2119.49 1681.97C2114.8 1681.97 2110.99 1674.14 2110.99 1664.47 2110.99 1654.81 2114.8 1646.97 2119.49 1646.97L2239.5 1646.97C2244.19 1646.97 2247.99 1654.81 2247.99 1664.47 2247.99 1674.14 2244.19 1681.97 2239.5 1681.97Z" fill="#CCCCCC" fill-rule="evenodd"/><path d="M2351.03 1546.97 2294.97 1546.97C2292.77 1546.97 2291 1539.14 2291 1529.47 2291 1519.81 2292.77 1511.97 2294.97 1511.97L2351.03 1511.97C2353.22 1511.97 2355 1519.81 2355 1529.47 2355 1539.14 2353.22 1546.97 2351.03 1546.97Z" fill="#CCCCCC" fill-rule="evenodd"/><path d="M2465.16 1545.97 2396.83 1545.97C2394.16 1545.97 2392 1538.14 2392 1528.47 2392 1518.81 2394.16 1510.97 2396.83 1510.97L2465.16 1510.97C2467.83 1510.97 2470 1518.81 2470 1528.47 2470 1538.14 2467.83 1545.97 2465.16 1545.97Z" fill="#CCCCCC" fill-rule="evenodd"/><path d="M2915.98 1545.97 2831.01 1545.97C2827.69 1545.97 2825 1538.14 2825 1528.47 2825 1518.81 2827.69 1510.97 2831.01 1510.97L2915.98 1510.97C2919.3 1510.97 2922 1518.81 2922 1528.47 2922 1538.14 2919.3 1545.97 2915.98 1545.97Z" fill="#CCCCCC" fill-rule="evenodd"/><path d="M2915.98 2132.97 2831.01 2132.97C2827.69 2132.97 2825 2125.14 2825 2115.47 2825 2105.81 2827.69 2097.97 2831.01 2097.97L2915.98 2097.97C2919.3 2097.97 2922 2105.81 2922 2115.47 2922 2125.14 2919.3 2132.97 2915.98 2132.97Z" fill="#CCCCCC" fill-rule="evenodd"/><path d="M1652.4 1558.96 1352.42 1558.96C1320.16 1558.92 1294.02 1532.79 1293.98 1500.54L1293.98 301.368C1294.02 269.124 1320.16 242.993 1352.42 242.955L2166.06 242.955 2314.98 375.854 2314.98 617.483 2308.11 617.483 2308.11 378.933 2163.44 249.827 1352.42 249.827C1323.96 249.862 1300.89 272.917 1300.86 301.368L1300.86 1500.54C1300.89 1529 1323.96 1552.05 1352.42 1552.08L1652.4 1552.08Z" fill="#CCCCCC" fill-rule="evenodd"/><path d="M2311.56 379.955 2219.16 379.955C2187.05 379.921 2161.02 353.874 2160.98 321.73L2160.98 246.38C2160.98 244.49 2162.52 242.955 2164.4 242.955 2166.29 242.955 2167.83 244.49 2167.83 246.38L2167.83 321.73C2167.86 350.093 2190.82 373.074 2219.16 373.105L2311.56 373.105C2313.45 373.105 2314.98 374.64 2314.98 376.53 2314.98 378.421 2313.45 379.955 2311.56 379.955Z" fill="#CCCCCC" fill-rule="evenodd"/><path d="M2196.51 461.955 1413.46 461.955C1398.28 461.955 1385.98 474.268 1385.98 489.455 1385.98 504.642 1398.28 516.955 1413.46 516.955L2196.51 516.955C2211.68 516.955 2223.98 504.642 2223.98 489.455 2223.98 474.268 2211.68 461.955 2196.51 461.955Z" fill="#E6E6E6" fill-rule="evenodd"/><path d="M1801.51 344.955 1413.45 344.955C1398.28 344.955 1385.98 357.268 1385.98 372.455 1385.98 387.642 1398.28 399.955 1413.45 399.955L1801.51 399.955C1816.68 399.955 1828.98 387.642 1828.98 372.455 1828.98 357.268 1816.68 344.955 1801.51 344.955Z" fill="#E6E6E6" fill-rule="evenodd"/><path d="M1660.98 1462.91 1440.73 1462.91C1409.41 1462.84 1384.02 1412.5 1383.98 1350.37L1383.98 777.449C1384.02 715.329 1409.41 664.979 1440.73 664.911L1660.98 664.911Z" fill="#E6E6E6" fill-rule="evenodd"/><path d="M2015.4 1928.96 1715.42 1928.96C1683.16 1928.92 1657.02 1902.77 1656.98 1870.5L1656.98 670.412C1657.02 638.144 1683.16 611.993 1715.42 611.955L2529.06 611.955 2677.98 744.955 2677.98 973.013 2671.11 973.013 2671.11 748.036 2526.44 618.832 1715.42 618.832C1686.96 618.867 1663.89 641.94 1663.86 670.412L1663.86 1870.5C1663.89 1898.97 1686.96 1922.05 1715.42 1922.08L2015.4 1922.08Z" fill="#CCCCCC" fill-rule="evenodd"/><path d="M2674.54 749.956 2581.54 749.956C2549.21 749.921 2523.02 723.684 2522.98 691.305L2522.98 615.405C2522.98 613.5 2524.53 611.955 2526.43 611.955 2528.33 611.955 2529.87 613.5 2529.87 615.405L2529.87 691.305C2529.9 719.875 2553.02 743.024 2581.54 743.055L2674.54 743.055C2676.44 743.055 2677.98 744.601 2677.98 746.505 2677.98 748.41 2676.44 749.956 2674.54 749.956Z" fill="#CCCCCC" fill-rule="evenodd"/><path d="M2559.47 831.955 1775.49 831.955C1760.3 831.955 1747.98 844.268 1747.98 859.455 1747.98 874.642 1760.3 886.955 1775.49 886.955L2559.47 886.955C2574.67 886.955 2586.98 874.642 2586.98 859.455 2586.98 844.268 2574.67 831.955 2559.47 831.955Z" fill="#E6E6E6" fill-rule="evenodd"/><path d="M2164.45 714.955 1775.52 714.955C1760.31 714.955 1747.98 727.268 1747.98 742.455 1747.98 757.642 1760.31 769.955 1775.52 769.955L2164.45 769.955C2179.65 769.955 2191.98 757.642 2191.98 742.455 2191.98 727.268 2179.65 714.955 2164.45 714.955Z" fill="#E6E6E6" fill-rule="evenodd"/><path d="M2022.98 1800.91 1802.73 1800.91C1771.41 1800.84 1746.02 1750.44 1745.98 1688.23L1745.98 1114.59C1746.02 1052.39 1771.41 1001.98 1802.73 1001.91L2022.98 1001.91Z" fill="#E6E6E6" fill-rule="evenodd"/><path d="M2040.97 975.552C2023.59 986.16 2012.99 1005.05 2012.98 1025.41L2012.98 1034.01 2019.86 1034.01 2019.86 1025.41C2019.89 1002.03 2035.61 981.583 2058.19 975.552ZM2885.06 966.955 2071.42 966.955C2039.16 966.993 2013.02 993.144 2012.98 1025.41L2012.98 2225.5C2013.03 2257.77 2039.17 2283.91 2071.42 2283.96L2975.54 2283.96C3007.8 2283.91 3033.94 2257.77 3033.98 2225.5L3033.98 1099.96ZM3027.11 2225.5C3027.07 2253.97 3004.01 2277.04 2975.54 2277.08L2071.42 2277.08C2042.96 2277.04 2019.89 2253.97 2019.86 2225.5L2019.86 1025.41C2019.88 1002.03 2035.61 981.583 2058.19 975.552 2062.51 974.403 2066.95 973.822 2071.42 973.832L2882.45 973.832 3027.11 1103.02ZM2040.97 975.552C2023.59 986.16 2012.99 1005.05 2012.98 1025.41L2012.98 1034.01 2019.86 1034.01 2019.86 1025.41C2019.88 1002.03 2035.61 981.583 2058.19 975.552Z" fill="#3F3D56" fill-rule="evenodd"/><path d="M3030.54 1104.96 2937.54 1104.96C2905.21 1104.92 2879.02 1078.68 2878.98 1046.31L2878.98 970.405C2878.98 968.501 2880.52 966.955 2882.43 966.955 2884.33 966.955 2885.87 968.501 2885.87 970.405L2885.87 1046.31C2885.9 1074.87 2909.02 1098.02 2937.54 1098.06L3030.54 1098.06C3032.44 1098.06 3033.98 1099.6 3033.98 1101.51 3033.98 1103.41 3032.44 1104.96 3030.54 1104.96Z" fill="#3F3D56" fill-rule="evenodd"/></g></svg>