<svg width="2548" height="1583" xmlns="http://www.w3.org/2000/svg" xmlns:xlink="http://www.w3.org/1999/xlink" xml:space="preserve" overflow="hidden"><defs><clipPath id="clip0"><path d="M2225.01 391.228 2442.94 433.588 2400.58 651.511 2182.65 609.151Z" fill-rule="evenodd" clip-rule="evenodd"/></clipPath><clipPath id="clip1"><path d="M2225.01 391.228 2442.94 433.588 2400.58 651.511 2182.65 609.151Z" fill-rule="evenodd" clip-rule="evenodd"/></clipPath><clipPath id="clip2"><path d="M2225.01 391.228 2442.94 433.588 2400.58 651.511 2182.65 609.151Z" fill-rule="evenodd" clip-rule="evenodd"/></clipPath></defs><g transform="translate(-709 -280)"><path d="M2030.65 1551.53 1130.6 1783.2C1067.03 1799.48 1002.27 1761.26 985.828 1697.76L713.643 641.185C697.349 577.643 735.588 512.912 799.121 496.481L1636.48 280.95 1850.78 376.849 2116.13 1406.82C2132.43 1470.36 2094.19 1535.1 2030.65 1551.53Z" fill="#F2F2F2" fill-rule="evenodd"/><path d="M808.406 529.545C763.184 541.247 735.963 587.355 747.56 632.613L1019.65 1689.42C1031.35 1734.65 1077.45 1761.88 1122.69 1750.28L2022.37 1518.56C2067.59 1506.86 2094.81 1460.75 2083.22 1415.49L1822.09 401.25 1633.82 316.95Z" fill="#FFFFFF" fill-rule="evenodd"/><path d="M1848.04 382.011 1709.35 417.697C1688.27 423.121 1666.78 410.44 1661.35 389.374L1634.97 287.022C1634.63 285.706 1635.43 284.365 1636.75 284.027 1637.28 283.89 1637.85 283.938 1638.36 284.16L1848.43 377.377C1849.67 377.931 1850.23 379.385 1849.68 380.63 1849.37 381.314 1848.77 381.823 1848.04 382.011Z" fill="#F2F2F2" fill-rule="evenodd"/><path d="M2913.91 1829.42 2001.91 1652.14C1937.52 1639.55 1895.48 1577.22 1907.93 1512.8L2116.13 441.735C2128.72 377.353 2191.05 335.313 2255.46 347.758L3103.92 512.682 3256.19 691.324 3053.24 1735.43C3040.65 1799.81 2978.32 1841.86 2913.91 1829.42Z" fill="#E6E6E6" fill-rule="evenodd"/><path d="M2248.93 381.344C2203.06 372.483 2158.68 402.42 2149.71 448.267L1941.52 1519.34C1932.66 1565.2 1962.6 1609.59 2008.44 1618.55L2920.44 1795.83C2966.31 1804.69 3010.69 1774.75 3019.66 1728.9L3219.47 700.981 3085.65 543.986Z" fill="#FFFFFF" fill-rule="evenodd"/><path d="M2320.41 759.51C2318.87 759.212 2317.46 758.421 2316.41 757.254L2316.34 757.181 2302.6 741.699C2299.97 738.644 2300.31 734.03 2303.36 731.396 2306.36 728.809 2310.88 729.083 2313.54 732.014L2322.44 742.061 2353.39 714.641C2356.41 711.967 2361.03 712.247 2363.7 715.267 2363.7 715.268 2363.7 715.268 2363.7 715.269L2363.7 715.269 2363.51 715.445 2363.71 715.264C2366.38 718.285 2366.1 722.898 2363.08 725.573L2326.66 757.812C2324.96 759.316 2322.65 759.941 2320.42 759.5Z" fill="#FFFFFF" fill-rule="evenodd"/><path d="M3251.89 695.299 3110.75 667.863C3089.29 663.692 3075.28 642.917 3079.45 621.46L3099.71 517.214C3099.97 515.873 3101.27 514.997 3102.61 515.259 3103.16 515.366 3103.66 515.654 3104.02 516.076L3254.25 691.251C3255.13 692.289 3255.01 693.851 3253.98 694.74 3253.4 695.23 3252.64 695.432 3251.9 695.289Z" fill="#CCCCCC" fill-rule="evenodd"/><path d="M1864 1322.73 1174.46 1508.49C1144.82 1516.41 1108.57 1477.45 1093.44 1421.39L954.151 904.375C939.08 848.307 950.848 796.41 980.457 788.36L1669.99 602.597C1699.63 594.684 1735.88 633.645 1751.02 689.696L1890.3 1206.72C1905.38 1262.79 1893.61 1314.69 1864 1322.73Z" fill="#F2F2F2" fill-rule="evenodd"/><path d="M1087.04 759.732 1281.05 1479.86" stroke="#5271FF" stroke-width="6.875" stroke-miterlimit="8" stroke-opacity="0.301961" fill="none" fill-rule="evenodd"/><path d="M1186.26 733.001 1380.27 1453.13" stroke="#5271FF" stroke-width="6.875" stroke-miterlimit="8" stroke-opacity="0.301961" fill="none" fill-rule="evenodd"/><path d="M1292.6 704.353 1486.61 1424.49" stroke="#5271FF" stroke-width="6.875" stroke-miterlimit="8" stroke-opacity="0.301961" fill="none" fill-rule="evenodd"/><path d="M0 0 825.279 0.000360892" stroke="#5271FF" stroke-width="11.4583" stroke-miterlimit="8" fill="none" fill-rule="evenodd" transform="matrix(-0.965574 0.26013 0.26013 0.965574 1754.4 702.235)"/><path d="M1591.83 623.739 1785.84 1343.87" stroke="#5271FF" stroke-width="6.875" stroke-miterlimit="8" stroke-opacity="0.301961" fill="none" fill-rule="evenodd"/><path d="M0 0 825.279 0.000360892" stroke="#5271FF" stroke-width="11.4583" stroke-miterlimit="8" fill="none" fill-rule="evenodd" transform="matrix(-0.965574 0.26013 0.26013 0.965574 1891.36 1215.96)"/><path d="M1106.94 936.755 993.705 967.261C989.276 968.454 983.851 962.603 981.586 954.195 979.321 945.786 981.073 938.002 985.501 936.809L1098.74 906.303C1103.16 905.11 1108.59 910.961 1110.86 919.369 1113.12 927.777 1111.37 935.562 1106.94 936.755Z" fill="#CCCCCC" fill-rule="evenodd"/><path d="M1122.43 994.24 1009.19 1024.75C1004.76 1025.94 999.338 1020.09 997.073 1011.68 994.807 1003.27 996.559 995.488 1000.99 994.295L1114.22 963.788C1118.65 962.595 1124.08 968.446 1126.34 976.854 1128.61 985.263 1126.86 993.047 1122.43 994.24Z" fill="#CCCCCC" fill-rule="evenodd"/><path d="M1138.26 1052.99 1025.02 1083.5C1020.59 1084.69 1015.17 1078.84 1012.9 1070.43 1010.64 1062.02 1012.39 1054.24 1016.82 1053.04L1130.05 1022.54C1134.48 1021.35 1139.91 1027.2 1142.17 1035.6 1144.44 1044.01 1142.68 1051.8 1138.26 1052.99Z" fill="#CCCCCC" fill-rule="evenodd"/><path d="M1208.67 909.863 1154.83 924.368C1152.72 924.935 1149.18 918.578 1146.92 910.169 1144.65 901.761 1144.52 894.484 1146.63 893.917L1200.47 879.411C1202.57 878.844 1206.12 885.202 1208.38 893.61 1210.65 902.019 1210.78 909.296 1208.67 909.863Z" fill="#CCCCCC" fill-rule="evenodd"/><path d="M1316.03 880.298 1251.42 897.704C1248.89 898.385 1245.01 892.119 1242.74 883.71 1240.48 875.302 1240.69 867.933 1243.22 867.252L1307.82 849.846C1310.35 849.166 1314.24 855.431 1316.5 863.84 1318.77 872.248 1318.55 879.617 1316.03 880.298Z" fill="#CCCCCC" fill-rule="evenodd"/><path d="M1742.89 765.3 1662.12 787.058C1658.96 787.909 1654.57 781.781 1652.3 773.373 1650.04 764.964 1650.76 757.457 1653.92 756.606L1734.68 734.849C1737.84 733.998 1742.24 740.126 1744.5 748.534 1746.77 756.943 1746.04 764.45 1742.89 765.3Z" fill="#CCCCCC" fill-rule="evenodd"/><path d="M1878.61 1269.11 1797.85 1290.87C1794.69 1291.72 1790.3 1285.59 1788.03 1277.18 1785.77 1268.78 1786.49 1261.27 1789.65 1260.42L1870.41 1238.66C1873.57 1237.81 1877.96 1243.94 1880.23 1252.35 1882.5 1260.75 1881.77 1268.26 1878.61 1269.11Z" fill="#CCCCCC" fill-rule="evenodd"/><g clip-path="url(#clip0)"><g clip-path="url(#clip1)"><g clip-path="url(#clip2)"><path d="M2296.91 603.09C2274.06 598.648 2255.41 591.372 2240.96 581.261 2226.52 571.15 2220.28 561.024 2222.25 550.885L2239.9 460.084C2241.84 450.096 2251.49 443.097 2268.83 439.088 2286.18 435.078 2306.13 435.265 2328.68 439.648 2351.23 444.031 2369.8 451.331 2384.38 461.547 2398.96 471.763 2405.28 481.866 2403.34 491.854L2385.69 582.655C2383.72 592.794 2374.14 599.846 2356.96 603.809 2339.78 607.772 2319.76 607.532 2296.91 603.09ZM2318.05 494.356C2331.51 496.974 2345.43 497.677 2359.8 496.466 2374.18 495.254 2382.62 492.616 2385.14 488.551 2384.33 483.839 2377.53 478.198 2364.75 471.631 2351.97 465.064 2338.77 460.456 2325.15 457.809 2311.38 455.132 2297.5 454.436 2283.5 455.721 2269.51 457.006 2261.02 459.713 2258.02 463.841 2259.25 468.793 2266.12 474.447 2278.63 480.805 2291.14 487.162 2304.27 491.679 2318.05 494.356ZM2309.27 539.53C2315.62 540.765 2321.81 541.654 2327.83 542.196 2333.85 542.737 2339.65 542.963 2345.25 542.872 2350.84 542.782 2356.18 542.367 2361.27 541.629 2366.36 540.891 2371.08 539.845 2375.43 538.491L2380.72 511.251C2376.38 512.605 2371.66 513.651 2366.57 514.389 2361.48 515.127 2356.14 515.541 2350.54 515.632 2344.95 515.723 2339.14 515.497 2333.12 514.955 2327.1 514.414 2320.92 513.525 2314.56 512.289 2308.2 511.054 2302.06 509.545 2296.12 507.763 2290.19 505.981 2284.64 504 2279.49 501.821 2274.34 499.642 2269.58 497.264 2265.21 494.687 2260.84 492.111 2256.97 489.395 2253.6 486.541L2248.31 513.781C2251.68 516.635 2255.55 519.351 2259.92 521.927 2264.28 524.504 2269.04 526.882 2274.2 529.061 2279.35 531.241 2284.89 533.221 2290.83 535.003 2296.76 536.785 2302.91 538.294 2309.27 539.53ZM2300.44 584.93C2307.4 586.283 2314.58 587.129 2321.97 587.467 2329.37 587.805 2336.26 587.692 2342.65 587.128 2349.04 586.564 2354.5 585.583 2359.01 584.182 2363.52 582.782 2366.38 581.021 2367.57 578.898L2371.9 556.652C2367.55 558.005 2362.83 559.052 2357.74 559.789 2352.65 560.527 2347.31 560.942 2341.72 561.033 2336.12 561.123 2330.32 560.898 2324.3 560.356 2318.28 559.814 2312.09 558.925 2305.74 557.69 2299.38 556.454 2293.23 554.946 2287.3 553.164 2281.36 551.381 2275.82 549.401 2270.67 547.222 2265.51 545.042 2260.75 542.664 2256.39 540.088 2252.02 537.511 2248.15 534.796 2244.78 531.942L2240.41 554.415C2240.72 556.832 2242.68 559.49 2246.28 562.388 2249.88 565.286 2254.54 568.194 2260.25 571.111 2265.97 574.028 2272.35 576.722 2279.41 579.193 2286.47 581.665 2293.48 583.577 2300.44 584.93Z" fill="#005500" fill-opacity="0.61"/></g></g></g><path d="M2812.45 1545.87 2176.57 1422.26C2149.26 1416.89 2136.1 1366.4 2147.15 1309.4L2249.32 783.784C2260.43 726.798 2291.54 684.916 2318.88 690.158L2954.76 813.761C2982.07 819.141 2995.23 869.629 2984.18 926.627L2882.01 1452.24C2870.9 1509.23 2839.78 1551.12 2812.45 1545.87Z" fill="#F2F2F2" fill-rule="evenodd"/><path d="M2444.13 714.588 2301.82 1446.69" stroke="#005500" stroke-width="6.875" stroke-miterlimit="8" stroke-opacity="0.301961" fill="none" fill-rule="evenodd"/><path d="M2652.39 750.92 2510.08 1483.03" stroke="#005500" stroke-width="6.875" stroke-miterlimit="8" stroke-opacity="0.301961" fill="none" fill-rule="evenodd"/><path d="M0 0 748.619 0.000360892" stroke="#005500" stroke-width="11.4583" stroke-miterlimit="8" fill="none" fill-rule="evenodd" transform="matrix(-0.981627 -0.190809 -0.190809 0.981627 2981.7 939.374)"/><path d="M2845.53 792.613 2703.22 1524.72" stroke="#005500" stroke-width="6.875" stroke-miterlimit="8" stroke-opacity="0.301961" fill="none" fill-rule="evenodd"/><path d="M2382.3 882.478 2277.87 862.179C2273.79 861.385 2271.82 853.811 2273.49 845.263 2275.15 836.715 2279.8 830.428 2283.89 831.221L2388.31 851.52C2392.4 852.313 2394.36 859.887 2392.7 868.436 2391.04 876.984 2386.38 883.271 2382.3 882.478Z" fill="#CCCCCC" fill-rule="evenodd"/><path d="M2370.94 940.918 2266.51 920.62C2262.43 919.826 2260.46 912.252 2262.13 903.704 2263.79 895.156 2268.44 888.868 2272.53 889.662L2376.95 909.961C2381.04 910.754 2383 918.328 2381.34 926.876 2379.68 935.425 2375.02 941.712 2370.94 940.918Z" fill="#CCCCCC" fill-rule="evenodd"/><path d="M2359.33 1000.65 2254.9 980.347C2250.82 979.553 2248.85 971.979 2250.52 963.431 2252.18 954.883 2256.83 948.595 2260.92 949.389L2365.34 969.688C2369.43 970.481 2371.39 978.055 2369.73 986.603 2368.07 995.152 2363.41 1001.44 2359.33 1000.65Z" fill="#CCCCCC" fill-rule="evenodd"/><path d="M2520.09 908.347 2460.51 896.765C2458.18 896.312 2457.63 889.015 2459.3 880.466 2460.96 871.918 2464.19 865.354 2466.52 865.807L2526.11 877.389C2528.44 877.842 2528.98 885.14 2527.32 893.688 2525.65 902.236 2522.42 908.8 2520.09 908.347Z" fill="#CCCCCC" fill-rule="evenodd"/><path d="M2911.22 984.376 2836.75 969.899C2833.83 969.333 2832.82 961.943 2834.48 953.395 2836.14 944.847 2839.85 938.375 2842.76 938.941L2917.24 953.418C2920.15 953.984 2921.17 961.374 2919.51 969.922 2917.84 978.47 2914.14 984.942 2911.22 984.376Z" fill="#CCCCCC" fill-rule="evenodd"/><path d="M2396.14 811.265 2291.71 790.967C2287.63 790.173 2285.67 782.599 2287.33 774.051 2288.99 765.502 2293.65 759.215 2297.73 760.009L2402.16 780.307C2406.24 781.101 2408.2 788.675 2406.54 797.223 2404.88 805.771 2400.22 812.059 2396.14 811.265Z" fill="#CCCCCC" fill-rule="evenodd"/><path d="M2578.81 846.772 2474.38 826.474C2470.3 825.68 2468.33 818.106 2470 809.558 2471.66 801.009 2476.31 794.722 2480.4 795.516L2584.82 815.814C2588.91 816.608 2590.87 824.182 2589.21 832.73 2587.55 841.278 2582.89 847.566 2578.81 846.772Z" fill="#CCCCCC" fill-rule="evenodd"/><path d="M2779.35 885.754 2674.93 865.456C2670.84 864.662 2668.88 857.088 2670.54 848.54 2672.2 839.992 2676.86 833.704 2680.94 834.498L2785.37 854.796C2789.45 855.59 2791.41 863.164 2789.75 871.712 2788.09 880.26 2783.43 886.548 2779.35 885.754Z" fill="#CCCCCC" fill-rule="evenodd"/><path d="M2955.71 920.034 2851.28 899.736C2847.2 898.942 2845.23 891.368 2846.9 882.82 2848.56 874.271 2853.21 867.984 2857.3 868.778L2961.72 889.076C2965.81 889.87 2967.77 897.444 2966.11 905.992 2964.45 914.54 2959.79 920.828 2955.71 920.034Z" fill="#CCCCCC" fill-rule="evenodd"/><path d="M2705.55 1005.96 2645.96 994.379C2643.63 993.926 2643.09 986.628 2644.76 978.08 2646.42 969.531 2649.65 962.968 2651.98 963.421L2711.56 975.003C2713.89 975.455 2714.44 982.753 2712.77 991.301 2711.11 999.85 2707.88 1006.41 2705.55 1005.96Z" fill="#CCCCCC" fill-rule="evenodd"/><path d="M2493.47 1026.72 2433.89 1015.14C2431.56 1014.69 2431.02 1007.39 2432.68 998.84 2434.34 990.292 2437.58 983.728 2439.91 984.181L2499.49 995.763C2501.82 996.216 2502.36 1003.51 2500.7 1012.06 2499.04 1020.61 2495.8 1027.17 2493.47 1026.72Z" fill="#CCCCCC" fill-rule="evenodd"/><path d="M1686.56 541.664 929.515 744.514C914.842 748.445 899.765 739.737 895.834 725.068 891.904 710.398 900.607 695.319 915.28 691.388L1672.32 488.538C1686.99 484.608 1702.07 493.314 1706 507.984 1709.94 522.653 1701.23 537.734 1686.56 541.664Z" fill="#CCCCCC" fill-rule="evenodd"/><path d="M1270.86 536.09 895.658 636.625C880.985 640.556 865.908 631.849 861.977 617.179 858.047 602.51 866.75 587.43 881.423 583.499L1256.62 482.964C1271.29 479.033 1286.37 487.74 1290.3 502.409 1294.24 517.079 1285.53 532.159 1270.86 536.09Z" fill="#CCCCCC" fill-rule="evenodd"/><g><g><g><path d="M1930.08 1776.67C1881.88 1776.67 1840.87 1759.94 1807.05 1726.49 1773.24 1693.03 1756.33 1652.2 1756.33 1604L1756.33 1600.22 1721.8 1634.76 1691.58 1604.54 1777.92 1518.21 1864.25 1604.54 1834.03 1634.76 1799.5 1600.22 1799.5 1604C1799.5 1639.97 1812.18 1670.55 1837.54 1695.73 1862.9 1720.91 1893.75 1733.5 1930.08 1733.5 1939.43 1733.5 1948.6 1732.42 1957.6 1730.26 1966.59 1728.1 1975.4 1724.87 1984.04 1720.55L2016.41 1752.93C2002.74 1760.84 1988.71 1766.77 1974.32 1770.73 1959.94 1774.69 1945.19 1776.67 1930.08 1776.67ZM2080.08 1689.79 1993.75 1603.46 2023.97 1573.24 2058.5 1607.78 2058.5 1604C2058.5 1568.03 2045.82 1537.45 2020.46 1512.27 1995.1 1487.09 1964.25 1474.5 1927.92 1474.5 1918.57 1474.5 1909.4 1475.58 1900.4 1477.74 1891.41 1479.9 1882.6 1483.13 1873.96 1487.45L1841.59 1455.08C1855.26 1447.16 1869.29 1441.23 1883.67 1437.27 1898.06 1433.31 1912.81 1431.33 1927.92 1431.33 1976.12 1431.33 2017.13 1448.06 2050.95 1481.51 2084.76 1514.97 2101.67 1555.8 2101.67 1604L2101.67 1607.78 2136.2 1573.24 2166.42 1603.46 2080.08 1689.79Z" fill="#3F3D56"/></g></g></g><path d="M2211.65 997.435C2212.76 991.61 2218.39 987.794 2224.22 988.912L2929.36 1124.22C2935.19 1125.34 2939 1130.97 2937.88 1136.79L2929.79 1178.98C2928.67 1184.81 2923.04 1188.62 2917.22 1187.5L2212.07 1052.19C2206.25 1051.07 2202.43 1045.45 2203.55 1039.62Z" stroke="#005500" stroke-width="11.4583" stroke-miterlimit="8" fill="none" fill-rule="evenodd"/><path d="M996.991 1053.91C995.476 1048.25 998.832 1042.44 1004.49 1040.93L1772.6 835.111C1778.26 833.596 1784.07 836.952 1785.59 842.606L1796.56 883.557C1798.07 889.211 1794.72 895.023 1789.06 896.538L1020.95 1102.35C1015.29 1103.87 1009.48 1100.51 1007.96 1094.86Z" stroke="#005500" stroke-width="11.4583" stroke-miterlimit="8" fill="none" fill-rule="evenodd"/><path d="M1936.49 853.533C1927.74 884.056 1895.9 901.707 1865.38 892.957 1834.85 884.208 1817.2 852.37 1825.95 821.847 1834.7 791.323 1866.54 773.672 1897.06 782.422 1927.59 791.171 1945.24 823.009 1936.49 853.533Z" fill="#005500" fill-rule="evenodd"/><path d="M1879.66 858.07C1878.37 858.038 1877.12 857.586 1876.11 856.781L1876.04 856.731 1862.82 846.032C1860.24 843.944 1859.85 840.161 1861.93 837.584 1864.02 835.009 1867.8 834.612 1870.38 836.703L1878.95 843.648 1900.35 817.239C1902.44 814.664 1906.22 814.269 1908.79 816.356L1908.79 816.356 1908.66 816.53 1908.8 816.354C1911.37 818.444 1911.77 822.224 1909.68 824.799L1884.5 855.848C1883.32 857.299 1881.54 858.115 1879.67 858.058Z" fill="#FFFFFF" fill-rule="evenodd"/><path d="M1154.43 1117.82 1041.19 1148.33C1036.77 1149.52 1031.34 1143.67 1029.08 1135.26 1026.81 1126.86 1028.56 1119.07 1032.99 1117.88L1146.23 1087.37C1150.65 1086.18 1156.08 1092.03 1158.35 1100.44 1160.61 1108.85 1158.86 1116.63 1154.43 1117.82Z" fill="#CCCCCC" fill-rule="evenodd"/><path d="M1363.52 1061.37 1298.91 1078.77C1296.38 1079.45 1292.5 1073.19 1290.23 1064.78 1287.97 1056.37 1288.18 1049 1290.71 1048.32L1355.31 1030.92C1357.84 1030.24 1361.73 1036.5 1363.99 1044.91 1366.26 1053.32 1366.04 1060.69 1363.52 1061.37Z" fill="#CCCCCC" fill-rule="evenodd"/><path d="M1790.38 946.37 1709.61 968.127C1706.46 968.978 1702.06 962.85 1699.79 954.442 1697.53 946.033 1698.25 938.527 1701.41 937.676L1782.17 915.918C1785.33 915.068 1789.73 921.195 1791.99 929.604 1794.26 938.012 1793.53 945.519 1790.38 946.37Z" fill="#CCCCCC" fill-rule="evenodd"/><path d="M1168.84 1167.72 1055.6 1198.23C1051.17 1199.42 1045.75 1193.57 1043.48 1185.16 1041.22 1176.75 1042.97 1168.97 1047.4 1167.77L1160.63 1137.27C1165.06 1136.08 1170.49 1141.93 1172.75 1150.33 1175.02 1158.74 1173.26 1166.53 1168.84 1167.72Z" fill="#CCCCCC" fill-rule="evenodd"/><path d="M1270.57 1140.83 1216.72 1155.33C1214.62 1155.9 1211.08 1149.54 1208.81 1141.13 1206.55 1132.73 1206.42 1125.45 1208.52 1124.88L1262.36 1110.38C1264.47 1109.81 1268.01 1116.17 1270.28 1124.58 1272.54 1132.98 1272.67 1140.26 1270.57 1140.83Z" fill="#CCCCCC" fill-rule="evenodd"/><path d="M1804.78 996.265 1724.02 1018.02C1720.86 1018.87 1716.46 1012.75 1714.2 1004.34 1711.93 995.929 1712.66 988.422 1715.81 987.571L1796.58 965.814C1799.73 964.963 1804.13 971.091 1806.4 979.499 1808.66 987.908 1807.94 995.415 1804.78 996.265Z" fill="#CCCCCC" fill-rule="evenodd"/><path d="M1656.34 1037.39 1436.57 1096.6C1427.97 1098.92 1419.17 1093.98 1416.9 1085.57 1414.64 1077.16 1419.77 1068.47 1428.36 1066.15L1648.14 1006.94C1656.73 1004.63 1665.54 1009.57 1667.8 1017.98 1670.07 1026.38 1664.94 1035.08 1656.34 1037.39Z" fill="#CCCCCC" fill-rule="evenodd"/><path d="M1048.61 1224.26C1047.09 1218.61 1050.45 1212.8 1056.1 1211.28L1824.22 1005.47C1829.87 1003.95 1835.69 1007.31 1837.2 1012.96L1848.17 1053.91C1849.69 1059.56 1846.33 1065.38 1840.68 1066.89L1072.56 1272.71C1066.91 1274.22 1061.09 1270.87 1059.58 1265.21Z" stroke="#9C1C1C" stroke-width="11.4583" stroke-miterlimit="8" fill="none" fill-rule="evenodd"/><path d="M1186.55 1222.83 1073.31 1253.34C1068.88 1254.53 1063.46 1248.68 1061.19 1240.27 1058.93 1231.86 1060.68 1224.08 1065.11 1222.89L1178.34 1192.38C1182.77 1191.19 1188.2 1197.04 1190.46 1205.45 1192.73 1213.86 1190.98 1221.64 1186.55 1222.83Z" fill="#CCCCCC" fill-rule="evenodd"/><path d="M1288.28 1195.94 1234.44 1210.45C1232.33 1211.01 1228.79 1204.66 1226.52 1196.25 1224.26 1187.84 1224.13 1180.56 1226.23 1180L1280.07 1165.49C1282.18 1164.92 1285.72 1171.28 1287.99 1179.69 1290.25 1188.1 1290.38 1195.37 1288.28 1195.94Z" fill="#CCCCCC" fill-rule="evenodd"/><path d="M1396.5 1169.09 1331.89 1186.49C1329.36 1187.17 1325.48 1180.91 1323.21 1172.5 1320.95 1164.09 1321.16 1156.72 1323.69 1156.04L1388.3 1138.63C1390.82 1137.95 1394.71 1144.22 1396.97 1152.63 1399.24 1161.04 1399.03 1168.41 1396.5 1169.09Z" fill="#CCCCCC" fill-rule="evenodd"/><path d="M2236.24 877.219C2237.36 871.473 2242.92 867.721 2248.67 868.838L2952.81 1005.71C2958.56 1006.83 2962.31 1012.39 2961.19 1018.14L2953.1 1059.75C2951.98 1065.5 2946.42 1069.25 2940.68 1068.13L2236.53 931.263C2230.79 930.146 2227.04 924.582 2228.15 918.836Z" stroke="#9C1C1C" stroke-width="11.4583" stroke-miterlimit="8" fill="none" fill-rule="evenodd"/><path d="M2343.86 1063.58 2239.43 1043.29C2235.35 1042.49 2233.38 1034.92 2235.05 1026.37 2236.71 1017.82 2241.36 1011.53 2245.45 1012.33L2349.87 1032.63C2353.96 1033.42 2355.92 1040.99 2354.26 1049.54 2352.6 1058.09 2347.94 1064.38 2343.86 1063.58Z" fill="#CCCCCC" fill-rule="evenodd"/><path d="M2872.79 1165.48 2798.31 1151.01C2795.39 1150.44 2794.38 1143.05 2796.04 1134.5 2797.7 1125.95 2801.41 1119.48 2804.32 1120.05L2878.8 1134.53C2881.71 1135.09 2882.73 1142.48 2881.07 1151.03 2879.41 1159.58 2875.7 1166.05 2872.79 1165.48Z" fill="#CCCCCC" fill-rule="evenodd"/><path d="M2682.27 1126.34 2622.68 1114.76C2620.35 1114.31 2619.81 1107.01 2621.47 1098.46 2623.14 1089.91 2626.37 1083.35 2628.7 1083.8L2688.28 1095.38C2690.61 1095.84 2691.15 1103.13 2689.49 1111.68 2687.83 1120.23 2684.6 1126.79 2682.27 1126.34Z" fill="#CCCCCC" fill-rule="evenodd"/><path d="M1975.98 1029.64C1967.23 1060.17 1935.39 1077.82 1904.87 1069.07 1874.34 1060.32 1856.69 1028.48 1865.44 997.958 1874.19 967.434 1906.03 949.783 1936.55 958.533 1967.08 967.283 1984.73 999.12 1975.98 1029.64Z" fill="#9C1C1C" fill-rule="evenodd"/><g><g><g><path d="M1896.73 1044.33 1890.67 1038.27 1914.93 1014 1890.67 989.733 1896.73 983.667 1921 1007.93 1945.27 983.667 1951.33 989.733 1927.07 1014 1951.33 1038.27 1945.27 1044.33 1921 1020.07 1896.73 1044.33Z" stroke="#FFFFFF" stroke-width="4.62223" fill="#FFFFFF"/></g></g></g></g></svg>