<svg width="447" height="116" xmlns="http://www.w3.org/2000/svg" xmlns:xlink="http://www.w3.org/1999/xlink" xml:space="preserve" overflow="hidden"><g transform="translate(-417 -191)"><path d="M58.7939-10.3472C53.6307-2.75336 45.9171 1.04097 35.6636 1.04097 26.3625 1.04097 18.7843-2.19124 12.9288-8.66085 7.23473-15.0316 4.39289-22.9117 4.39289-32.3116 4.39289-41.6908 7.23473-49.5761 12.9288-55.9624 18.7843-62.4164 26.5759-65.6434 36.309-65.6434 46.0524-65.6434 53.5474-61.8127 58.7939-54.1512L58.7939-64.6233 68.4957-64.6233 68.4957 0 58.7939 0ZM36.9544-7.7448C43.9341-7.7448 49.4512-10.1598 53.5058-14.9899 57.3782-19.5546 59.3144-25.3268 59.3144-32.3116 59.3144-39.2913 57.3782-45.0583 53.5058-49.6125 49.4512-54.4426 43.9341-56.8577 36.9544-56.8577 30.0684-56.8577 24.468-54.4426 20.1531-49.6125 16.1142-45.0583 14.0947-39.2913 14.0947-32.3116 14.0947-25.3268 16.1142-19.5546 20.1531-14.9899 24.468-10.1598 30.0684-7.7448 36.9544-7.7448Z" fill="#5271FF" transform="matrix(1 0 0 1.00028 418.713 264.994)"/><path d="M55.0464 0 55.0464-10.0766C52.725-6.97969 49.8832-4.35125 46.5105-2.18603 43.1481-0.031229 39.3174 1.04097 35.0182 1.04097 30.7138 1.04097 27.0079 0.437207 23.9006-0.770316 20.8037-1.97784 18.092-3.78912 15.7603-6.20417 10.4149-11.4611 7.7448-18.3939 7.7448-27.0027L7.7448-64.6233 17.4466-64.6233 17.4466-27.2734C17.4466-21.319 19.1226-16.5722 22.4849-13.0329 25.842-9.50404 30.1933-7.7448 35.5386-7.7448 40.9621-7.7448 45.5736-9.55609 49.3627-13.1787 53.1518-16.8845 55.0464-21.6209 55.0464-27.3983L55.0464-64.6233 64.7482-64.6233 64.7482 0Z" fill="#5271FF" transform="matrix(1 0 0 1.00028 495.602 264.994)"/><path d="M58.7939-54.2761 58.7939-64.6233 68.4957-64.6233 68.4957-1.9362C68.4957 7.35964 65.8412 14.4486 60.5427 19.3204 55.239 24.1921 48.1031 26.628 39.1404 26.628 30.1881 26.628 23.1928 24.9 18.1545 21.4439 13.1162 17.9983 9.69141 13.4337 7.89054 7.7448L18.6125 7.7448C21.3607 14.4747 27.6481 17.8422 37.4748 17.8422 44.9698 17.8422 50.3933 16.1142 53.7556 12.6582 57.1127 9.21257 58.7939 4.13264 58.7939-2.5816L58.7939-11.4923C53.5474-3.83076 45.8338 0 35.6636 0 26.3625 0 18.7843-3.18536 12.9288-9.55609 7.23473-15.7603 4.39289-23.5155 4.39289-32.8321 4.39289-42.128 7.23473-49.8832 12.9288-56.0874 18.7843-62.4581 26.5967-65.6434 36.3714-65.6434 46.1565-65.6434 53.6307-61.8543 58.7939-54.2761ZM36.9544-8.78577C40.4937-8.78577 43.6374-9.41035 46.3855-10.6595 49.1441-11.9087 51.5175-13.6055 53.5058-15.7603 57.3782-20.2416 59.3144-25.9305 59.3144-32.8321 59.3144-39.7129 57.3782-45.3966 53.5058-49.8832 49.2846-54.5311 43.7675-56.8577 36.9544-56.8577 29.9695-56.8577 24.3691-54.5311 20.1531-49.8832 16.1142-45.3133 14.0947-39.6297 14.0947-32.8321 14.0947-26.0138 16.1142-20.3249 20.1531-15.7603 24.3691-11.1071 29.9695-8.78577 36.9544-8.78577Z" fill="#5271FF" transform="matrix(1 0 0 1.00028 568.744 264.994)"/><path d="M55.0464 0 55.0464-10.0766C52.725-6.97969 49.8832-4.35125 46.5105-2.18603 43.1481-0.031229 39.3174 1.04097 35.0182 1.04097 30.7138 1.04097 27.0079 0.437207 23.9006-0.770316 20.8037-1.97784 18.092-3.78912 15.7603-6.20417 10.4149-11.4611 7.7448-18.3939 7.7448-27.0027L7.7448-64.6233 17.4466-64.6233 17.4466-27.2734C17.4466-21.319 19.1226-16.5722 22.4849-13.0329 25.842-9.50404 30.1933-7.7448 35.5386-7.7448 40.9621-7.7448 45.5736-9.55609 49.3627-13.1787 53.1518-16.8845 55.0464-21.6209 55.0464-27.3983L55.0464-64.6233 64.7482-64.6233 64.7482 0Z" fill="#5271FF" transform="matrix(1 0 0 1.00028 645.633 264.994)"/><path d="M42.5131-65.6434 42.5131-55.9624 41.3472-55.9624C34.3624-55.9624 28.6787-53.157 24.2962-47.5514 20.1583-42.206 18.092-35.8353 18.092-28.4392L18.092 0 8.3902 0 8.3902-64.6233 18.092-64.6233 18.092-48.7173C20.1583-55.4315 24.6397-60.3866 31.5413-63.5823 34.3728-64.9564 37.8132-65.6434 41.8677-65.6434Z" fill="#5271FF" transform="matrix(1 0 0 1.00028 718.775 264.994)"/><path d="M37.225-7.7448C45.9275-7.7448 52.1733-11.3674 55.9624-18.6125L66.5595-18.6125C64.311-12.7519 60.7509-8.01545 55.8792-4.39289 51.0178-0.770316 44.7512 1.04097 37.0793 1.04097 27.3462 1.04097 19.4245-2.19124 13.3036-8.66085 7.35964-14.9483 4.39289-22.8284 4.39289-32.3116 4.39289-41.8729 7.23473-49.7583 12.9288-55.9624 18.9508-62.4164 26.7841-65.6434 36.4339-65.6434 46.0941-65.6434 53.9326-62.4164 59.9598-55.9624 65.6487-49.7583 68.4957-41.8729 68.4957-32.3116L68.4957-28.4392 14.3445-28.4392C15.0368-22.4849 17.405-17.5715 21.4439-13.6991 25.5766-9.72785 30.8387-7.7448 37.225-7.7448ZM36.4339-56.8577C30.49-56.8577 25.4933-55.0047 21.4439-51.2989 17.6548-47.77 15.3283-43.1637 14.4695-37.4748L58.4191-37.4748C57.5447-43.1637 55.2129-47.77 51.4238-51.2989 47.3849-55.0047 42.3882-56.8577 36.4339-56.8577Z" fill="#5271FF" transform="matrix(1 0 0 1.00028 763.358 264.994)"/><path d="M19.3828-13.1787 19.3828 0 6.84957 0 6.84957-13.1787Z" fill="#5271FF" transform="matrix(1 0 0 1.00028 835.337 264.994)"/></g></svg>