<svg xmlns="http://www.w3.org/2000/svg" width="765.83927" height="536.7767" viewBox="150 -100 650 450" xmlns:xlink="http://www.w3.org/1999/xlink" role="img" artist="Katerina Limpitsouni" source="https://undraw.co/"><path d="M975.74765,531.16211H445.25318a7.18,7.18,0,0,1-7.172-7.172V195.42H982.91963V523.99013A7.18,7.18,0,0,1,975.74765,531.16211Z" transform="translate(-217.08037 -181.61165)" fill="#e6e6e6"/><path d="M960.19238,510.62891H460.80859a7.258,7.258,0,0,1-7.25-7.25V232.78955a7.25835,7.25835,0,0,1,7.25-7.25H960.19238a7.258,7.258,0,0,1,7.25,7.25V503.37891A7.25772,7.25772,0,0,1,960.19238,510.62891Z" transform="translate(-217.08037 -181.61165)" fill="#fff"/><path d="M982.68727,205.56618H437.849V188.78363a7.18,7.18,0,0,1,7.172-7.172H975.51529a7.18,7.18,0,0,1,7.172,7.172Z" transform="translate(-217.08037 -181.61165)" fill="#5271FF"/><circle cx="238.36468" cy="12.23725" r="4.28342" fill="#fff"/><circle cx="254.62349" cy="12.23725" r="4.28342" fill="#fff"/><circle cx="270.88229" cy="12.23725" r="4.28342" fill="#fff"/><rect x="287.80315" y="92.44901" width="51.46951" height="22.78159" fill="#e6e6e6"/><rect x="390.74217" y="139.69972" width="51.46951" height="22.78159" fill="#e6e6e6"/><rect x="287.80315" y="210.57577" width="51.46951" height="22.7816" fill="#5271FF"/><rect x="390.74217" y="257.82646" width="51.46951" height="22.78159" fill="#5271FF"/><rect x="647.24598" y="281.45181" width="51.46951" height="22.78159" fill="#5271FF"/><rect x="595.77647" y="186.95042" width="51.46951" height="22.78159" fill="#e6e6e6"/><rect x="442.21169" y="186.95042" width="102.93903" height="22.78159" fill="#5271FF"/><rect x="442.21169" y="67.9799" width="102.93903" height="22.78159" fill="#5271FF"/><path d="M453.414,225.12244V511.15792H968.10918V225.12242Zm513.00764,23.6958H916.80858V226.81h49.61307ZM660.30477,414.6876V392.67974H761.21839V414.6876Zm100.91367,1.68753V438.3834H660.30472V416.37513Zm0-94.78239v22.00787H660.30472V321.59274Zm-100.91367-1.68752V297.89694H761.21839v22.00828Zm0,47.39119V345.28813H761.21839v22.00828Zm100.91367,1.68752v22.00828H660.30472V368.98393ZM658.61725,343.60061H609.00418V321.59274h49.61307Zm0,1.68752v22.00828H609.00418V345.28813Zm0,23.6958v22.00828H609.00418V368.98393Zm0,23.69581V414.6876H609.00418V392.67974Zm104.28872,0H812.519V414.6876H762.906Zm0-1.68753V368.98393H812.519v22.00828Zm0-23.6958V345.28813H812.519v22.00828Zm0-23.6958V321.59274H812.519v22.00787Zm0-23.69539V297.89694H812.519v22.00828Zm0-23.6958V274.20114H812.519v22.00828Zm-1.68753,0H660.30472V274.20114H761.21839Zm-102.60119,0H609.00418V274.20114h49.61307Zm0,1.68752v22.00828H609.00418V297.89694Zm-51.3006,22.00828H557.7027V297.89694h49.6139Zm0,1.68752v22.00787H557.7027V321.59274Zm0,23.69539v22.00828H557.7027V345.28813Zm0,23.6958v22.00828H557.7027V368.98393Zm0,23.69581V414.6876H557.7027V392.67974Zm0,23.69539V438.3834H557.7027V416.37513Zm1.68753,0h49.61307V438.3834H609.00418Zm49.61307,23.6958v22.00786H609.00418V440.07093Zm1.68752,0H761.21839v22.00786H660.30472Zm102.6012,0H812.519v22.00786H762.906Zm0-1.68753V416.37513H812.519V438.3834Zm51.30059-22.00827h49.6139V438.3834h-49.614Zm0-1.68753V392.67974h49.6139V414.6876Zm0-23.69539V368.98393h49.6139v22.00828Zm0-23.6958V345.28813h49.6139v22.00828Zm0-23.6958V321.59274h49.6139v22.00787Zm0-23.69539V297.89694h49.6139v22.00828Zm0-23.6958V274.20114h49.6139v22.00828Zm0-23.6958V250.50575h49.6139v22.00787Zm-1.68752,0H762.906V250.50575H812.519Zm-51.3006,0H660.30472V250.50575H761.21839Zm-102.60119,0H609.00418V250.50575h49.61307Zm-51.3006,0H557.7027V250.50575h49.6139Zm0,1.68752v22.00828H557.7027V274.20114Zm-51.30142,22.00828H506.40216V274.20114h49.61307Zm0,1.68752v22.00828H506.40216V297.89694Zm0,23.6958v22.00787H506.40216V321.59274Zm0,23.69539v22.00828H506.40216V345.28813Zm0,23.6958v22.00828H506.40216V368.98393Zm0,23.69581V414.6876H506.40216V392.67974Zm0,23.69539V438.3834H506.40216V416.37513Zm0,23.6958v22.00786H506.40216V440.07093Zm1.68752,0h49.6139v22.00786H557.7027Zm49.6139,23.69539V485.775H557.7027V463.76632Zm1.68753,0h49.61307V485.775H609.00418Zm51.30059,0H761.21839V485.775H660.30472Zm102.6012,0H812.519V485.775H762.906Zm51.30059,0h49.6139V485.775h-49.614Zm0-1.68753V440.07093h49.6139v22.00786ZM865.508,440.07093h49.61308v22.00786H865.508Zm0-1.68753V416.37513h49.61308V438.3834Zm0-23.6958V392.67974h49.61308V414.6876Zm0-23.69539V368.98393h49.61308v22.00828Zm0-23.6958V345.28813h49.61308v22.00828Zm0-23.6958V321.59274h49.61308v22.00787Zm0-23.69539V297.89694h49.61308v22.00828Zm0-23.6958V274.20114h49.61308v22.00828Zm0-23.6958V250.50575h49.61308v22.00787Zm0-23.69539V226.81h49.61308v22.00828Zm-1.68752,0h-49.614V226.81h49.6139Zm-51.30142,0H762.906V226.81H812.519Zm-51.3006,0H660.30472V226.81H761.21839Zm-102.60119,0H609.00418V226.81h49.61307Zm-51.3006,0H557.7027V226.81h49.6139Zm-51.30142,0H506.40216V226.81h49.61307Zm0,1.68752v22.00787H506.40216V250.50575Zm-51.3006,22.00787H455.10156V250.50575h49.61307Zm0,1.68752v22.00828H455.10156V274.20114Zm0,23.6958v22.00828H455.10156V297.89694Zm0,23.6958v22.00787H455.10156V321.59274Zm0,23.69539v22.00828H455.10156V345.28813Zm0,23.6958v22.00828H455.10156V368.98393Zm0,23.69581V414.6876H455.10156V392.67974Zm0,23.69539V438.3834H455.10156V416.37513Zm0,23.6958v22.00786H455.10156V440.07093Zm0,23.69539V485.775H455.10156V463.76632Zm1.68753,0h49.61307V485.775H506.40216Zm49.61307,23.69621V509.4704H506.40216V487.46253Zm1.68752,0h49.6139V509.4704H557.7027Zm51.30143,0h49.61307V509.4704H609.00418Zm51.30059,0H761.21839V509.4704H660.30472Zm102.6012,0H812.519V509.4704H762.906Zm51.30059,0h49.6139V509.4704h-49.614Zm51.30142,0h49.61308V509.4704H865.508Zm0-1.68752V463.76632h49.61308V485.775Zm51.3006-22.00869h49.61307V485.775H916.80858Zm0-1.68753V440.07093h49.61307v22.00786Zm0-23.69539V416.37513h49.61307V438.3834Zm0-23.6958V392.67974h49.61307V414.6876Zm0-23.69539V368.98393h49.61307v22.00828Zm0-23.6958V345.28813h49.61307v22.00828Zm0-23.6958V321.59274h49.61307v22.00787Zm0-23.69539V297.89694h49.61307v22.00828Zm0-23.6958V274.20114h49.61307v22.00828Zm0-23.6958V250.50575h49.61307v22.00787ZM504.71463,226.81v22.00828H455.10156V226.81ZM455.10156,487.46253h49.61307V509.4704H455.10156Zm461.707,22.00787V487.46253h49.61307V509.4704Z" transform="translate(-217.08037 -181.61165)" fill="#e6e6e6"/></svg>