<svg width="1739" height="1170" xmlns="http://www.w3.org/2000/svg" xmlns:xlink="http://www.w3.org/1999/xlink" xml:space="preserve" overflow="hidden"><g transform="translate(-1392 -120)"><path d="M1522.47 429.248 2156.23 429.248 2156.23 551.453 1522.47 551.453Z" fill="#F2F2F2" fill-rule="evenodd"/><path d="M2156.23 429.248 2394.08 429.248 2394.08 551.453 2156.23 551.453Z" fill="#F2F2F2" fill-rule="evenodd"/><path d="M2394.08 429.248 2799.7 429.248 2799.7 551.453 2394.08 551.453Z" fill="#F2F2F2" fill-rule="evenodd"/><path d="M2799.7 429.248 3036.23 429.248 3036.23 551.453 2799.7 551.453Z" fill="#F2F2F2" fill-rule="evenodd"/><path d="M1522.47 551.453 2156.23 551.453 2156.23 673.658 1522.47 673.658Z" fill="#F2F2F2" fill-rule="evenodd"/><path d="M2156.23 551.453 2394.08 551.453 2394.08 673.658 2156.23 673.658Z" fill="#F2F2F2" fill-rule="evenodd"/><path d="M2394.08 551.453 2799.7 551.453 2799.7 673.658 2394.08 673.658Z" fill="#F2F2F2" fill-rule="evenodd"/><path d="M2799.7 551.453 3036.23 551.453 3036.23 673.658 2799.7 673.658Z" fill="#F2F2F2" fill-rule="evenodd"/><path d="M1522.47 673.658 2156.23 673.658 2156.23 795.863 1522.47 795.863Z" fill="#F2F2F2" fill-rule="evenodd"/><path d="M2156.23 673.658 2394.08 673.658 2394.08 795.863 2156.23 795.863Z" fill="#F2F2F2" fill-rule="evenodd"/><path d="M2394.08 673.658 2799.7 673.658 2799.7 795.863 2394.08 795.863Z" fill="#F2F2F2" fill-rule="evenodd"/><path d="M2799.7 673.658 3036.23 673.658 3036.23 795.863 2799.7 795.863Z" fill="#F2F2F2" fill-rule="evenodd"/><path d="M1522.47 795.863 2156.23 795.863 2156.23 918.068 1522.47 918.068Z" fill="#F2F2F2" fill-rule="evenodd"/><path d="M2156.23 795.863 2394.08 795.863 2394.08 918.068 2156.23 918.068Z" fill="#F2F2F2" fill-rule="evenodd"/><path d="M2394.08 795.863 2799.7 795.863 2799.7 918.068 2394.08 918.068Z" fill="#F2F2F2" fill-rule="evenodd"/><path d="M2799.7 795.863 3036.23 795.863 3036.23 918.068 2799.7 918.068Z" fill="#F2F2F2" fill-rule="evenodd"/><path d="M1522.47 918.068 2156.23 918.068 2156.23 1040.27 1522.47 1040.27Z" fill="#F2F2F2" fill-rule="evenodd"/><path d="M2156.23 918.068 2394.08 918.068 2394.08 1040.27 2156.23 1040.27Z" fill="#F2F2F2" fill-rule="evenodd"/><path d="M2394.08 918.068 2799.7 918.068 2799.7 1040.27 2394.08 1040.27Z" fill="#F2F2F2" fill-rule="evenodd"/><path d="M2799.7 918.068 3036.23 918.068 3036.23 1040.27 2799.7 1040.27Z" fill="#F2F2F2" fill-rule="evenodd"/><path d="M1522.47 1040.27 2156.23 1040.27 2156.23 1162.48 1522.47 1162.48Z" fill="#F2F2F2" fill-rule="evenodd"/><path d="M2156.23 1040.27 2394.08 1040.27 2394.08 1162.48 2156.23 1162.48Z" fill="#F2F2F2" fill-rule="evenodd"/><path d="M2394.08 1040.27 2799.7 1040.27 2799.7 1162.48 2394.08 1162.48Z" fill="#F2F2F2" fill-rule="evenodd"/><path d="M2799.7 1040.27 3036.23 1040.27 3036.23 1162.48 2799.7 1162.48Z" fill="#F2F2F2" fill-rule="evenodd"/><path d="M2156.23 429.248 2156.23 1162.48" stroke="#5271FF" stroke-width="6.875" stroke-linejoin="round" stroke-miterlimit="10" stroke-opacity="0.301961" fill="none" fill-rule="evenodd"/><path d="M2394.08 429.248 2394.08 1162.48" stroke="#5271FF" stroke-width="6.875" stroke-linejoin="round" stroke-miterlimit="10" stroke-opacity="0.301961" fill="none" fill-rule="evenodd"/><path d="M2799.7 429.248 2799.7 1162.48" stroke="#5271FF" stroke-width="6.875" stroke-linejoin="round" stroke-miterlimit="10" stroke-opacity="0.301961" fill="none" fill-rule="evenodd"/><path d="M1522.47 551.453 3036.23 551.453" stroke="#5271FF" stroke-width="6.875" stroke-linejoin="round" stroke-miterlimit="10" stroke-opacity="0.301961" fill="none" fill-rule="evenodd"/><path d="M1522.47 673.658 3036.23 673.658" stroke="#5271FF" stroke-width="6.875" stroke-linejoin="round" stroke-miterlimit="10" stroke-opacity="0.301961" fill="none" fill-rule="evenodd"/><path d="M1522.47 795.863 3036.23 795.863" stroke="#5271FF" stroke-width="6.875" stroke-linejoin="round" stroke-miterlimit="10" stroke-opacity="0.301961" fill="none" fill-rule="evenodd"/><path d="M1522.47 918.068 3036.23 918.068" stroke="#5271FF" stroke-width="6.875" stroke-linejoin="round" stroke-miterlimit="10" stroke-opacity="0.301961" fill="none" fill-rule="evenodd"/><path d="M1522.47 1040.27 3036.23 1040.27" stroke="#5271FF" stroke-width="6.875" stroke-linejoin="round" stroke-miterlimit="10" stroke-opacity="0.301961" fill="none" fill-rule="evenodd"/><g><text fill="#747474" font-family="Calibri,Calibri_MSFontService,sans-serif" font-weight="400" font-size="64" transform="matrix(1 0 0 1 1555.47 506)">Retours</text></g><g><text fill="#747474" font-family="Calibri,Calibri_MSFontService,sans-serif" font-weight="400" font-size="64" transform="matrix(1 0 0 1 1555.47 628)">Annulation Remises</text></g><g><text fill="#747474" font-family="Calibri,Calibri_MSFontService,sans-serif" font-weight="400" font-size="64" transform="matrix(1 0 0 1 1555.47 750)">Avantages</text></g><path d="M1395.5 317.337C1395.5 210.284 1482.28 123.5 1589.34 123.5L2933.66 123.5C3040.72 123.5 3127.5 210.284 3127.5 317.337L3127.5 1092.66C3127.5 1199.72 3040.72 1286.5 2933.66 1286.5L1589.34 1286.5C1482.28 1286.5 1395.5 1199.72 1395.5 1092.66Z" stroke="#CCCCCC" stroke-width="6.875" stroke-miterlimit="8" fill="none" fill-rule="evenodd"/><text fill="#2E186A" font-family="Calibri,Calibri_MSFontService,sans-serif" font-weight="700" font-size="110" transform="matrix(1 0 0 1 1525.71 325)">Synthèse</text><path d="M2998.71 771.941 2839.28 771.941C2833.04 771.941 2827.99 755.822 2827.99 735.941 2827.99 716.06 2833.04 699.941 2839.28 699.941L2998.71 699.941C3004.94 699.941 3009.99 716.06 3009.99 735.941 3009.99 755.822 3004.94 771.941 2998.71 771.941Z" fill="#5271FF" fill-rule="evenodd" fill-opacity="0.501961"/><path d="M2998.71 653.942 2839.28 653.942C2833.04 653.942 2827.99 638.047 2827.99 618.442 2827.99 598.837 2833.04 582.942 2839.28 582.942L2998.71 582.942C3004.94 582.942 3009.99 598.837 3009.99 618.442 3009.99 638.047 3004.94 653.942 2998.71 653.942Z" fill="#5271FF" fill-rule="evenodd" fill-opacity="0.501961"/><path d="M2754.22 524.941 2446.75 524.941C2434.73 524.941 2424.99 508.822 2424.99 488.941 2424.99 469.06 2434.73 452.941 2446.75 452.941L2754.22 452.941C2766.24 452.941 2775.99 469.06 2775.99 488.941 2775.99 508.822 2766.24 524.941 2754.22 524.941Z" fill="#5271FF" fill-rule="evenodd" fill-opacity="0.501961"/><path d="M1919.8 889.947 1578.17 889.947C1564.81 889.947 1553.98 875.395 1553.98 857.447 1553.98 839.499 1564.81 824.947 1578.17 824.947L1919.8 824.947C1933.15 824.947 1943.98 839.499 1943.98 857.447 1943.98 875.395 1933.15 889.947 1919.8 889.947Z" fill="#CCCCCC" fill-rule="evenodd"/><path d="M2754.22 771.941 2446.75 771.941C2434.73 771.941 2424.99 755.822 2424.99 735.941 2424.99 716.06 2434.73 699.941 2446.75 699.941L2754.22 699.941C2766.24 699.941 2775.99 716.06 2775.99 735.941 2775.99 755.822 2766.24 771.941 2754.22 771.941Z" fill="#CCCCCC" fill-rule="evenodd"/><path d="M2351.71 524.941 2192.28 524.941C2186.04 524.941 2180.99 508.822 2180.99 488.941 2180.99 469.06 2186.04 452.941 2192.28 452.941L2351.71 452.941C2357.94 452.941 2362.99 469.06 2362.99 488.941 2362.99 508.822 2357.94 524.941 2351.71 524.941Z" fill="#CCCCCC" fill-rule="evenodd"/><path d="M2754.22 1143.94 2446.75 1143.94C2434.73 1143.94 2424.99 1128.05 2424.99 1108.44 2424.99 1088.84 2434.73 1072.94 2446.75 1072.94L2754.22 1072.94C2766.24 1072.94 2775.99 1088.84 2775.99 1108.44 2775.99 1128.05 2766.24 1143.94 2754.22 1143.94Z" fill="#CCCCCC" fill-rule="evenodd"/><path d="M2998.71 888.942 2839.28 888.942C2833.04 888.942 2827.99 873.047 2827.99 853.442 2827.99 833.837 2833.04 817.942 2839.28 817.942L2998.71 817.942C3004.94 817.942 3009.99 833.837 3009.99 853.442 3009.99 873.047 3004.94 888.942 2998.71 888.942Z" fill="#CCCCCC" fill-rule="evenodd"/><path d="M2351.71 1011.94 2192.28 1011.94C2186.04 1011.94 2180.99 996.047 2180.99 976.442 2180.99 956.837 2186.04 940.942 2192.28 940.942L2351.71 940.942C2357.94 940.942 2362.99 956.837 2362.99 976.442 2362.99 996.047 2357.94 1011.94 2351.71 1011.94Z" fill="#5271FF" fill-rule="evenodd" fill-opacity="0.501961"/><path d="M1919.8 1011.95 1578.17 1011.95C1564.81 1011.95 1553.98 997.395 1553.98 979.447 1553.98 961.499 1564.81 946.947 1578.17 946.947L1919.8 946.947C1933.15 946.947 1943.98 961.499 1943.98 979.447 1943.98 997.395 1933.15 1011.95 1919.8 1011.95Z" fill="#CCCCCC" fill-rule="evenodd"/><path d="M1919.8 1135.95 1578.17 1135.95C1564.81 1135.95 1553.98 1121.4 1553.98 1103.45 1553.98 1085.5 1564.81 1070.95 1578.17 1070.95L1919.8 1070.95C1933.15 1070.95 1943.98 1085.5 1943.98 1103.45 1943.98 1121.4 1933.15 1135.95 1919.8 1135.95Z" fill="#CCCCCC" fill-rule="evenodd"/></g></svg>