<svg width="1739" height="1169" xmlns="http://www.w3.org/2000/svg" xmlns:xlink="http://www.w3.org/1999/xlink" xml:space="preserve" overflow="hidden"><g transform="translate(-715 -1307)"><path d="M857 2020.83C857 1985.03 886.027 1956 921.834 1956L2249.17 1956C2284.97 1956 2314 1985.03 2314 2020.83L2314 2280.17C2314 2315.97 2284.97 2345 2249.17 2345L921.834 2345C886.027 2345 857 2315.97 857 2280.17Z" fill="#F2F2F2" fill-rule="evenodd"/><path d="M718.5 1504.17C718.5 1397.21 805.209 1310.5 912.17 1310.5L2256.83 1310.5C2363.79 1310.5 2450.5 1397.21 2450.5 1504.17L2450.5 2278.83C2450.5 2385.79 2363.79 2472.5 2256.83 2472.5L912.17 2472.5C805.209 2472.5 718.5 2385.79 718.5 2278.83Z" stroke="#CCCCCC" stroke-width="6.875" stroke-miterlimit="8" fill="none" fill-rule="evenodd"/><path d="M855 1595.83C855 1560.03 884.027 1531 919.833 1531L2247.17 1531C2282.97 1531 2312 1560.03 2312 1595.83L2312 1855.17C2312 1890.97 2282.97 1920 2247.17 1920L919.833 1920C884.027 1920 855 1890.97 855 1855.17Z" fill="#F2F2F2" fill-rule="evenodd"/><text fill="#5271FF" font-family="Calibri,Calibri_MSFontService,sans-serif" font-weight="400" font-size="83" transform="matrix(1 0 0 1 888.339 1624)">Fournisseur A</text><text fill="#2E186A" font-family="Calibri,Calibri_MSFontService,sans-serif" font-weight="700" font-size="110" transform="matrix(1 0 0 1 888.339 1455)">Audit</text><path d="M0 0 1457 0.000360892" stroke="#5271FF" stroke-width="6.875" stroke-miterlimit="8" stroke-opacity="0.301961" fill="none" fill-rule="evenodd" transform="matrix(-1 0 0 1 2312.5 1664.5)"/><path d="M0 0 1457 0.000360892" stroke="#5271FF" stroke-width="6.875" stroke-miterlimit="8" stroke-opacity="0.301961" fill="none" fill-rule="evenodd" transform="matrix(-1 0 0 1 2312.5 2079.5)"/><text fill="#747474" font-family="Calibri,Calibri_MSFontService,sans-serif" font-weight="400" font-size="73" transform="matrix(1 0 0 1 968.379 1766)">Médicaments</text><path d="M2208.96 1783.95 2039.02 1783.95C2032.38 1783.95 2026.99 1769.4 2026.99 1751.45 2026.99 1733.5 2032.38 1718.95 2039.02 1718.95L2208.96 1718.95C2215.61 1718.95 2220.99 1733.5 2220.99 1751.45 2220.99 1769.4 2215.61 1783.95 2208.96 1783.95Z" fill="#CCCCCC" fill-rule="evenodd"/><path d="M2207.96 2204.95 2038.02 2204.95C2031.38 2204.95 2025.99 2190.4 2025.99 2172.45 2025.99 2154.5 2031.38 2139.95 2038.02 2139.95L2207.96 2139.95C2214.61 2139.95 2219.99 2154.5 2219.99 2172.45 2219.99 2190.4 2214.61 2204.95 2207.96 2204.95Z" fill="#CCCCCC" fill-rule="evenodd"/><path d="M2207.96 2301.95 2038.02 2301.95C2031.38 2301.95 2025.99 2287.62 2025.99 2269.95 2025.99 2252.28 2031.38 2237.95 2038.02 2237.95L2207.96 2237.95C2214.61 2237.95 2219.99 2252.28 2219.99 2269.95 2219.99 2287.62 2214.61 2301.95 2207.96 2301.95Z" fill="#CCCCCC" fill-rule="evenodd"/><path d="M1423.12 2055.94 944.838 2055.94C926.135 2055.94 910.978 2040.05 910.978 2020.44 910.978 2000.84 926.135 1984.94 944.838 1984.94L1423.12 1984.94C1441.82 1984.94 1456.98 2000.84 1456.98 2020.44 1456.98 2040.05 1441.82 2055.94 1423.12 2055.94Z" fill="#5271FF" fill-rule="evenodd" fill-opacity="0.501961"/><path d="M1515.88 2197.95 1006.07 2197.95C986.133 2197.95 969.976 2183.62 969.976 2165.95 969.976 2148.28 986.133 2133.95 1006.07 2133.95L1515.88 2133.95C1535.82 2133.95 1551.98 2148.28 1551.98 2165.95 1551.98 2183.62 1535.82 2197.95 1515.88 2197.95Z" fill="#CCCCCC" fill-rule="evenodd"/><path d="M1515.88 2298.95 1006.07 2298.95C986.133 2298.95 969.976 2284.4 969.976 2266.45 969.976 2248.5 986.133 2233.95 1006.07 2233.95L1515.88 2233.95C1535.82 2233.95 1551.98 2248.5 1551.98 2266.45 1551.98 2284.4 1535.82 2298.95 1515.88 2298.95Z" fill="#CCCCCC" fill-rule="evenodd"/><path d="M2207.96 1877.95 2038.02 1877.95C2031.38 1877.95 2025.99 1863.39 2025.99 1845.45 2025.99 1827.5 2031.38 1812.95 2038.02 1812.95L2207.96 1812.95C2214.61 1812.95 2219.99 1827.5 2219.99 1845.45 2219.99 1863.39 2214.61 1877.95 2207.96 1877.95Z" fill="#CCCCCC" fill-rule="evenodd"/><path d="M1515.88 1873.95 1006.07 1873.95C986.133 1873.95 969.976 1859.4 969.976 1841.45 969.976 1823.5 986.133 1808.95 1006.07 1808.95L1515.88 1808.95C1535.82 1808.95 1551.98 1823.5 1551.98 1841.45 1551.98 1859.4 1535.82 1873.95 1515.88 1873.95Z" fill="#CCCCCC" fill-rule="evenodd"/></g></svg>